<svg width="32" height="32" viewBox="0 0 32 32" fill="none" xmlns="http://www.w3.org/2000/svg">
<g id="Duo tone Icon V2" clip-path="url(#clip0_1342_2409)">
<path id="Vector" opacity="0.2" d="M27 6H5C4.44772 6 4 6.44772 4 7V25C4 25.5523 4.44772 26 5 26H27C27.5523 26 28 25.5523 28 25V7C28 6.44772 27.5523 6 27 6Z" fill="#004B7A"/>
<path id="Vector_2" d="M27 6H5C4.44772 6 4 6.44772 4 7V25C4 25.5523 4.44772 26 5 26H27C27.5523 26 28 25.5523 28 25V7C28 6.44772 27.5523 6 27 6Z" stroke="#004B7A" stroke-width="2" stroke-linecap="round" stroke-linejoin="round"/>
<path id="Vector_3" d="M10 12H22" stroke="#004B7A" stroke-width="2" stroke-linecap="round" stroke-linejoin="round"/>
<path id="Vector_4" d="M10 16H22" stroke="#004B7A" stroke-width="2" stroke-linecap="round" stroke-linejoin="round"/>
<path id="Vector_5" d="M10 20H22" stroke="#004B7A" stroke-width="2" stroke-linecap="round" stroke-linejoin="round"/>
</g>
<defs>
<clipPath id="clip0_1342_2409">
<rect width="32" height="32" fill="white"/>
</clipPath>
</defs>
</svg>
