<svg width="32" height="32" viewBox="0 0 32 32" fill="none" xmlns="http://www.w3.org/2000/svg">
<g id="Duo tone Icon V2" clip-path="url(#clip0_1340_3097)">
<path id="Vector" opacity="0.2" d="M26 18C26 9 16 2 16 2C16 2 6 9 6 18C6 20.6522 7.05357 23.1957 8.92893 25.0711C10.8043 26.9464 13.3478 28 16 28C18.6522 28 21.1957 26.9464 23.0711 25.0711C24.9464 23.1957 26 20.6522 26 18Z" fill="#004B7A"/>
<path id="Vector_2" d="M26 18C26 9 16 2 16 2C16 2 6 9 6 18C6 20.6522 7.05357 23.1957 8.92893 25.0711C10.8043 26.9464 13.3478 28 16 28C18.6522 28 21.1957 26.9464 23.0711 25.0711C24.9464 23.1957 26 20.6522 26 18Z" stroke="#004B7A" stroke-width="2" stroke-linecap="round" stroke-linejoin="round"/>
<path id="Vector_3" d="M17 24C19.5 23.5788 21.5762 21.5 22 19" stroke="#004B7A" stroke-width="2" stroke-linecap="round" stroke-linejoin="round"/>
</g>
<defs>
<clipPath id="clip0_1340_3097">
<rect width="32" height="32" fill="white"/>
</clipPath>
</defs>
</svg>
